<svg width="24" height="24" viewBox="0 0 24 24" fill="none" xmlns="http://www.w3.org/2000/svg">
<path fill-rule="evenodd" clip-rule="evenodd" d="M14.1205 11.2339H16.8884C17.308 11.2339 17.6378 10.8869 17.6378 10.4685C17.6378 10.0399 17.308 9.70312 16.8884 9.70312H14.1205C13.7008 9.70312 13.3711 10.0399 13.3711 10.4685C13.3711 10.8869 13.7008 11.2339 14.1205 11.2339ZM20.1766 5.92749C20.7861 5.92749 21.1858 6.1418 21.5855 6.61123C21.9852 7.08067 22.0551 7.7542 21.9652 8.36549L21.0159 15.06C20.8361 16.3469 19.7569 17.2949 18.4879 17.2949H7.58639C6.25742 17.2949 5.15828 16.255 5.04837 14.908L4.12908 3.7834L2.62026 3.51807C2.22057 3.44664 1.94079 3.04864 2.01073 2.64043C2.08068 2.22305 2.47038 1.94649 2.88006 2.00874L5.2632 2.3751C5.60293 2.43735 5.85274 2.72207 5.88272 3.06905L6.07257 5.35499C6.10254 5.68257 6.36234 5.92749 6.68209 5.92749H20.1766ZM7.42507 18.9082C6.58572 18.9082 5.90625 19.6021 5.90625 20.4594C5.90625 21.3064 6.58572 22.0003 7.42507 22.0003C8.25442 22.0003 8.93389 21.3064 8.93389 20.4594C8.93389 19.6021 8.25442 18.9082 7.42507 18.9082ZM18.6673 18.9082C17.8279 18.9082 17.1484 19.6021 17.1484 20.4594C17.1484 21.3064 17.8279 22.0003 18.6673 22.0003C19.4966 22.0003 20.1761 21.3064 20.1761 20.4594C20.1761 19.6021 19.4966 18.9082 18.6673 18.9082Z" fill="#2B675E"/>
</svg>
