<svg width="14" height="16" viewBox="0 0 14 16" fill="none" xmlns="http://www.w3.org/2000/svg">
<path d="M10.5761 8.82417C12.4023 8.82417 13.8869 10.2896 13.8869 12.0923C13.8869 13.8939 12.4023 15.3604 10.5761 15.3604C8.74984 15.3604 7.26526 13.8939 7.26526 12.0923C7.26526 10.2896 8.74984 8.82417 10.5761 8.82417ZM10.5761 10.3571C9.60602 10.3571 8.81817 11.1347 8.81817 12.0923C8.81817 13.0488 9.60602 13.8275 10.5761 13.8275C11.5461 13.8275 12.334 13.0488 12.334 12.0923C12.334 11.1347 11.5461 10.3571 10.5761 10.3571ZM7.25637 11.3255C7.68498 11.3255 8.03283 11.6689 8.03283 12.092C8.03283 12.515 7.68498 12.8584 7.25637 12.8584H0.890463C0.461859 12.8584 0.114006 12.515 0.114006 12.092C0.114006 11.6689 0.461859 11.3255 0.890463 11.3255H7.25637ZM3.42409 0.400391C5.25032 0.400391 6.73491 1.86685 6.73491 3.6685C6.73491 5.47015 5.25032 6.93661 3.42409 6.93661C1.5989 6.93661 0.113281 5.47015 0.113281 3.6685C0.113281 1.86685 1.5989 0.400391 3.42409 0.400391ZM3.42409 1.93328C2.45508 1.93328 1.6662 2.71198 1.6662 3.6685C1.6662 4.62502 2.45508 5.40373 3.42409 5.40373C4.39415 5.40373 5.18199 4.62502 5.18199 3.6685C5.18199 2.71198 4.39415 1.93328 3.42409 1.93328ZM13.1107 2.90226C13.5393 2.90226 13.8872 3.24563 13.8872 3.66871C13.8872 4.09178 13.5393 4.43515 13.1107 4.43515H6.74379C6.31519 4.43515 5.96733 4.09178 5.96733 3.66871C5.96733 3.24563 6.31519 2.90226 6.74379 2.90226H13.1107Z" fill="white"/>
</svg>
