<svg width="12" height="12" viewBox="0 0 12 12" fill="none" xmlns="http://www.w3.org/2000/svg">
<path d="M9.55008 7.46583C9.3947 7.62436 9.32331 7.85364 9.3587 8.0785L9.89203 11.1861C9.93703 11.4495 9.83144 11.716 9.62207 11.8683C9.4169 12.0262 9.14393 12.0451 8.92016 11.9188L6.26311 10.4597C6.17072 10.4079 6.06813 10.3802 5.96315 10.377H5.80057C5.74417 10.3858 5.68898 10.4048 5.63859 10.4338L2.98094 11.8998C2.84955 11.9693 2.70077 11.994 2.55499 11.9693C2.19984 11.8986 1.96287 11.5423 2.02106 11.1665L2.55499 8.05892C2.59039 7.83217 2.519 7.60163 2.36362 7.44056L0.1973 5.22987C0.0161234 5.0448 -0.0468684 4.76689 0.0359208 4.51613C0.11631 4.26601 0.321483 4.08347 0.569251 4.04241L3.55086 3.58701C3.77763 3.56237 3.97681 3.4171 4.07879 3.20235L5.39262 0.366343C5.42382 0.303181 5.46401 0.245071 5.51261 0.195804L5.5666 0.15159C5.59479 0.118746 5.62719 0.0915859 5.66319 0.0694789L5.72858 0.0442139L5.83056 0H6.08313C6.3087 0.0246334 6.50728 0.166749 6.61106 0.378976L7.94229 3.20235C8.03828 3.40889 8.22485 3.55227 8.44022 3.58701L11.4218 4.04241C11.6738 4.08031 11.8844 4.26348 11.9678 4.51613C12.0464 4.76941 11.9786 5.04733 11.7938 5.22987L9.55008 7.46583Z" fill="#59B99D"/>
</svg>
